<?xml version="1.0" standalone="no"?>
<!DOCTYPE svg PUBLIC "-//W3C//DTD SVG 20010904//EN"
 "http://www.w3.org/TR/2001/REC-SVG-20010904/DTD/svg10.dtd">
<svg version="1.0" xmlns="http://www.w3.org/2000/svg"
 width="1280.000000pt" height="1222.000000pt" viewBox="0 0 1280.000000 1222.000000"
 preserveAspectRatio="xMidYMid meet">
<metadata>
Created by potrace 1.15, written by Peter Selinger 2001-2017
</metadata>
<g transform="translate(0.000000,1222.000000) scale(0.100000,-0.100000)"
fill="#000000" stroke="none">
<path d="M6185 12213 c-56 -14 -194 -152 -195 -195 0 -25 19 -22 69 12 46 31
91 40 91 17 0 -35 -124 -112 -251 -158 -49 -17 -112 -47 -141 -65 -29 -19 -59
-34 -68 -35 -8 0 -55 -1 -105 -2 -104 -2 -140 -16 -203 -78 -56 -56 -127 -239
-93 -239 37 0 141 92 141 124 0 20 24 36 39 27 21 -13 96 11 242 77 157 71
232 97 317 111 65 10 91 21 112 45 16 21 74 20 91 0 11 -14 10 -18 -6 -30 -10
-8 -27 -14 -37 -14 -26 0 -73 -25 -130 -70 -73 -59 -209 -132 -440 -241 -349
-163 -334 -150 -319 -291 19 -187 34 -704 23 -814 -15 -145 -26 -167 -98 -190
-33 -10 -291 -134 -574 -276 -538 -270 -766 -376 -888 -414 -40 -12 -140 -61
-225 -110 -83 -48 -298 -163 -475 -255 -178 -93 -367 -197 -421 -233 -117 -78
-335 -275 -420 -381 -66 -82 -105 -152 -146 -260 -41 -109 -115 -251 -213
-407 -121 -192 -174 -299 -212 -433 -60 -206 -80 -237 -275 -430 -103 -102
-218 -228 -287 -315 -143 -182 -216 -267 -344 -401 -119 -124 -160 -181 -173
-238 -6 -29 -25 -59 -58 -94 -120 -127 -371 -560 -393 -679 -6 -28 -26 -87
-46 -131 -42 -93 -56 -167 -31 -167 22 0 143 137 172 194 20 39 25 65 25 121
0 98 20 156 74 220 52 61 96 132 96 157 0 32 100 164 250 333 84 94 221 256
304 360 168 209 225 264 366 351 126 77 168 118 236 227 83 134 155 228 209
273 114 95 136 119 165 179 35 73 51 175 28 175 -19 0 -48 -33 -83 -95 -51
-91 -106 -131 -122 -89 -17 45 84 302 208 529 226 411 460 702 688 854 90 59
269 151 371 190 51 20 119 69 240 176 171 151 251 188 579 271 367 94 445 127
631 275 297 235 516 357 658 367 51 4 67 1 84 -14 19 -17 20 -26 15 -104 -12
-163 -80 -362 -174 -503 -29 -45 -59 -100 -65 -122 -6 -22 -15 -55 -20 -73 -5
-18 -35 -65 -65 -105 -92 -121 -153 -262 -153 -356 0 -54 9 -66 41 -56 24 8
58 77 59 118 0 44 31 94 128 206 96 111 132 170 132 217 0 38 25 74 52 74 12
0 37 -16 55 -36 31 -34 34 -36 55 -22 24 16 123 186 133 229 6 23 2 27 -39 43
-92 35 -108 98 -56 216 30 69 40 107 61 238 7 50 26 104 60 173 27 55 49 105
49 110 0 5 -12 19 -26 32 -34 28 -54 76 -54 126 0 30 5 42 25 55 23 15 25 23
25 85 0 40 7 84 16 107 12 29 18 93 24 269 8 268 12 279 107 365 114 102 418
279 532 310 82 22 76 82 73 -798 -3 -781 1 -1002 20 -1002 17 0 71 52 212 203
155 166 192 194 268 207 31 5 74 18 96 29 45 23 102 84 102 109 0 25 41 92
113 184 106 137 127 180 89 190 -49 13 -82 373 -48 535 20 92 48 152 101 215
54 62 69 112 61 191 -11 109 -53 167 -168 236 -46 28 -88 76 -88 102 0 58
-117 102 -375 143 -292 46 -356 52 -410 39z"/>
<path d="M5807 11942 c-24 -26 -21 -34 11 -30 19 2 28 9 30 26 4 27 -18 29
-41 4z"/>
<path d="M8105 11140 c-90 -57 -115 -60 -180 -26 -81 44 -205 46 -246 5 -29
-29 -23 -54 21 -95 22 -21 40 -43 40 -50 0 -23 -106 -119 -168 -152 -65 -35
-82 -54 -75 -82 13 -48 -108 -221 -284 -403 -293 -305 -605 -802 -454 -722 33
17 71 63 196 238 108 150 162 207 198 207 13 0 43 -20 74 -49 28 -26 64 -51
79 -54 75 -14 159 63 250 227 31 55 73 126 93 156 47 71 51 83 61 155 9 67 20
95 54 143 17 23 24 45 24 76 -1 50 62 190 107 239 l26 27 30 -22 c97 -74 75
-69 273 -66 169 3 184 2 221 -19 23 -12 78 -27 122 -33 84 -12 246 -11 259 2
11 12 -25 47 -93 90 -57 36 -145 121 -180 174 -26 40 -61 47 -127 24 -84 -29
-106 -26 -167 20 -30 22 -58 40 -64 40 -6 0 -46 -22 -90 -50z"/>
<path d="M7245 10868 c-56 -31 -99 -98 -62 -98 20 0 111 46 126 63 30 37 -16
62 -64 35z"/>
<path d="M8232 10128 c-29 -29 6 -83 50 -76 34 5 35 41 2 67 -31 24 -36 25
-52 9z"/>
<path d="M8866 10118 c-3 -13 -6 -33 -6 -46 0 -13 -11 -43 -25 -67 -22 -37
-27 -61 -36 -190 -11 -150 -35 -272 -67 -334 -29 -55 -34 -54 -101 29 -22 28
-22 28 -107 -32 -54 -38 -92 -43 -131 -19 -44 28 -91 128 -109 237 -20 112
-38 154 -69 154 -25 0 -56 -33 -73 -77 -5 -15 -20 -55 -33 -88 -12 -33 -37
-80 -56 -104 -28 -38 -33 -52 -33 -101 0 -69 -35 -145 -107 -235 -66 -81 -126
-120 -197 -128 -111 -11 -178 -57 -247 -169 -19 -32 -35 -48 -49 -48 -24 0
-25 11 -6 82 12 48 12 66 -5 168 -34 202 -66 285 -88 228 -5 -13 -14 -69 -21
-124 -7 -54 -18 -124 -25 -154 -8 -30 -21 -123 -30 -207 -8 -84 -22 -168 -30
-187 -17 -40 -49 -66 -83 -66 -40 0 -92 -31 -118 -70 -18 -27 -29 -66 -40
-135 -8 -53 -30 -140 -50 -193 -54 -147 -187 -415 -259 -522 -48 -71 -72 -122
-100 -204 -38 -116 -119 -288 -160 -342 -14 -18 -40 -40 -59 -49 -49 -23 -147
-105 -174 -145 -19 -29 -23 -43 -18 -80 17 -129 -120 -397 -289 -565 -154
-155 -271 -167 -290 -29 -4 27 -16 69 -27 94 -22 51 -84 120 -108 120 -17 0
-76 -58 -103 -102 -25 -41 -64 -166 -72 -230 -5 -42 -3 -70 10 -108 23 -70 12
-107 -66 -203 -33 -42 -64 -89 -69 -105 -8 -28 0 -95 16 -137 8 -19 7 -19 -16
-4 -162 104 -222 124 -281 94 -19 -10 -64 -20 -100 -23 -63 -4 -68 -3 -83 20
-15 23 -15 32 -2 101 37 190 175 396 332 492 27 17 54 41 61 55 6 14 23 50 37
80 14 32 58 91 103 140 106 116 190 225 320 420 61 91 144 201 183 244 79 86
167 214 205 298 28 63 40 108 29 108 -12 0 -53 -28 -114 -78 -108 -88 -111
-28 -8 167 71 135 72 137 76 226 5 109 29 162 108 245 60 63 124 102 196 120
67 17 121 68 163 153 33 68 58 150 139 455 20 73 49 163 65 200 50 113 106
352 83 352 -15 0 -44 -39 -125 -170 -39 -63 -97 -141 -128 -172 -49 -49 -59
-65 -65 -105 -22 -149 -209 -502 -525 -994 -152 -236 -189 -283 -204 -259 -11
19 -24 10 -44 -28 -41 -81 -63 -190 -68 -350 l-5 -154 -42 -60 c-193 -279
-314 -437 -488 -635 -131 -150 -177 -211 -218 -292 -17 -35 -60 -104 -94 -155
-39 -57 -74 -124 -94 -179 -41 -113 -56 -141 -88 -166 -34 -27 -43 -26 -89 4
-70 48 -135 42 -168 -15 -23 -39 -66 -44 -229 -30 -170 15 -269 35 -338 68
-62 31 -92 69 -114 147 -21 70 -70 115 -126 115 -51 0 -66 -23 -75 -112 -8
-77 -29 -116 -84 -156 -76 -55 -277 -106 -597 -153 -145 -21 -147 -21 -173 -2
-14 11 -43 51 -64 89 -20 38 -49 79 -63 91 -35 32 -94 31 -131 -1 -26 -22 -28
-29 -26 -87 3 -72 -10 -100 -58 -124 -28 -15 -36 -15 -107 5 -42 11 -115 30
-162 41 -142 35 -167 47 -306 144 -10 7 -26 3 -57 -14 -141 -80 -436 -223
-518 -250 -110 -36 -154 -69 -222 -164 -54 -74 -106 -125 -167 -162 -25 -15
-78 -55 -119 -88 -48 -40 -95 -68 -134 -81 -56 -20 -62 -25 -101 -90 -24 -39
-50 -74 -59 -80 -11 -7 -37 -3 -91 14 -77 24 -93 23 -83 -4 9 -22 92 -44 280
-72 187 -28 192 -29 204 -52 4 -9 8 -368 8 -797 0 -748 1 -783 20 -850 17 -62
20 -101 20 -355 0 -417 -32 -624 -114 -755 -67 -106 -65 -155 6 -155 36 0 86
-21 118 -51 30 -27 92 -37 280 -44 292 -11 419 -41 445 -106 8 -18 23 -32 38
-36 72 -18 515 21 616 53 46 16 51 15 125 -7 69 -22 94 -24 276 -24 156 0 208
3 235 15 41 17 136 19 359 6 129 -8 153 -7 149 5 -6 19 -38 24 -338 54 -353
35 -455 50 -580 86 -149 42 -185 62 -211 116 -28 58 -21 108 21 145 36 33 73
35 255 13 66 -8 282 -19 480 -25 409 -12 562 -23 604 -44 39 -21 64 -77 56
-125 -8 -50 -38 -90 -103 -141 -60 -46 -100 -99 -144 -184 -42 -83 -104 -139
-253 -230 -86 -53 -154 -103 -200 -149 -82 -82 -95 -91 -155 -111 -86 -28
-153 -37 -480 -66 -193 -18 -299 -43 -357 -87 -43 -32 -42 -49 4 -57 21 -3
354 -9 740 -12 l702 -7 95 62 c119 77 196 106 345 131 147 25 204 41 313 91
79 36 123 49 231 65 26 3 50 17 73 39 38 38 45 41 157 54 74 9 117 28 117 53
0 23 -209 74 -256 62 -17 -4 -37 -28 -64 -73 -24 -42 -49 -72 -67 -80 -15 -7
-95 -23 -178 -36 -82 -13 -258 -42 -390 -65 -168 -29 -280 -43 -374 -46 -119
-4 -143 -8 -208 -34 -81 -33 -129 -38 -158 -16 -18 13 -18 15 0 62 32 84 93
134 269 218 85 41 159 83 164 93 5 10 15 44 21 75 7 31 25 74 41 96 34 47 135
102 189 102 62 0 166 27 270 69 189 76 334 101 397 68 16 -8 87 -65 159 -127
152 -131 224 -183 322 -235 l72 -37 -69 -57 -70 -56 66 -3 c49 -2 94 4 168 25
136 37 169 35 298 -20 126 -54 296 -110 313 -103 7 2 15 22 19 44 6 41 33 63
47 40 4 -7 5 -32 2 -56 -7 -54 13 -79 99 -117 67 -30 42 -30 398 -9 155 9 179
1 270 -99 164 -179 225 -235 269 -248 40 -12 45 -11 58 7 12 17 12 21 -8 36
-12 10 -34 18 -49 18 -34 0 -60 23 -60 53 -1 68 -89 175 -163 199 -31 10 -49
24 -71 57 -35 53 -50 59 -256 110 -90 23 -174 48 -187 56 -22 15 -22 17 -9 50
23 53 66 105 94 112 14 3 65 -2 114 -12 102 -20 153 -16 215 21 58 34 70 74
55 189 -13 98 -40 168 -72 185 -32 17 -63 -9 -124 -99 l-48 -73 -37 8 c-20 4
-92 7 -161 6 -118 -2 -134 0 -290 41 l-165 43 -12 84 c-25 178 -34 353 -34
717 0 359 9 537 31 614 6 18 10 76 10 127 0 79 3 97 21 122 18 23 20 36 15 74
-6 40 -5 47 16 60 13 9 39 19 56 22 18 4 34 9 36 13 2 3 -20 39 -50 80 -30 40
-61 96 -69 125 -29 96 -48 636 -25 715 5 19 26 52 47 73 l36 37 -45 43 c-51
48 -68 92 -68 173 1 63 16 106 66 180 58 88 258 286 324 321 43 23 69 48 121
116 36 48 123 152 193 230 234 261 365 492 407 710 6 34 35 106 71 175 34 65
73 156 89 203 15 47 52 141 82 210 30 69 60 150 66 180 7 30 19 73 28 95 21
59 100 182 153 240 59 65 99 124 138 201 59 117 152 242 287 384 75 79 168
186 207 239 93 124 236 293 467 549 225 251 284 310 327 328 62 26 81 21 341
-80 50 -20 121 -40 157 -45 37 -5 82 -19 102 -32 81 -50 247 -280 259 -359 22
-146 48 -189 144 -243 110 -61 270 -242 414 -470 92 -147 119 -181 183 -228
38 -28 65 -60 95 -111 70 -122 104 -168 235 -313 144 -159 169 -195 184 -260
6 -26 19 -63 29 -83 26 -52 98 -131 124 -137 12 -3 53 6 91 19 54 19 74 22 97
14 41 -14 126 -111 139 -158 11 -42 78 -137 131 -186 19 -18 60 -44 92 -59 84
-39 173 -154 211 -270 9 -27 34 -72 56 -100 88 -110 101 -130 111 -169 18 -67
41 -117 90 -192 26 -39 52 -81 58 -92 48 -91 63 -332 54 -925 l-6 -448 -86
-62 c-120 -86 -161 -125 -161 -152 0 -27 57 -101 124 -163 54 -49 82 -52 106
-10 14 26 13 31 -9 71 -30 55 -27 73 38 221 26 61 54 136 60 166 18 80 30 374
30 710 0 331 -9 503 -35 621 -17 78 -17 81 3 107 24 33 114 89 168 104 29 8
74 8 165 0 72 -7 129 -7 134 -2 30 30 -44 119 -191 225 -150 109 -268 204
-446 358 -287 250 -459 380 -582 438 -82 39 -193 140 -251 227 -71 106 -105
142 -255 268 -153 129 -255 236 -316 331 -40 63 -49 104 -35 157 13 44 -1 191
-24 275 -21 74 -82 193 -138 268 -55 75 -112 115 -164 117 -37 1 -37 1 -36
-37 1 -25 25 -86 70 -177 37 -77 65 -143 61 -146 -20 -21 -121 84 -305 318
-66 84 -171 214 -233 289 -73 87 -144 186 -197 275 -103 172 -231 428 -239
477 -6 41 8 67 38 67 36 0 52 43 45 119 -10 96 -60 293 -88 343 -27 49 -52 60
-62 26z m-3752 -5084 c7 -19 -10 -44 -29 -44 -19 0 -36 25 -29 44 3 9 16 16
29 16 13 0 26 -7 29 -16z m-1794 -1563 c0 -40 -25 -60 -47 -38 -15 14 -15 20
-3 42 19 36 50 33 50 -4z m-423 -343 c-2 -29 -3 -8 -3 47 0 55 1 79 3 53 2
-26 2 -71 0 -100z m-285 -145 c-2 -13 -8 -20 -13 -17 -11 6 -12 68 -2 78 10
10 20 -33 15 -61z m-1954 -168 c3 -22 -32 -85 -47 -85 -16 0 -24 66 -11 90 14
27 54 24 58 -5z m1750 -357 c17 -17 15 -83 -3 -118 -22 -43 -88 -64 -178 -57
-126 9 -162 44 -90 88 57 35 205 98 234 98 14 1 30 -4 37 -11z m617 -298 c14
-6 4 -9 -38 -9 -36 -1 -56 3 -52 9 7 12 62 12 90 0z m276 -30 c5 0 9 -4 9 -10
0 -5 -16 -10 -35 -10 -19 0 -35 4 -35 9 0 12 21 21 38 15 8 -2 18 -4 23 -4z
m2102 -540 c31 -15 35 -35 10 -49 -28 -14 -248 -61 -288 -61 -64 0 -31 60 58
105 45 23 61 26 122 22 39 -2 82 -10 98 -17z"/>
<path d="M9567 9914 c-22 -22 54 -225 100 -267 28 -25 53 -12 53 27 0 56 -131
262 -153 240z"/>
<path d="M5709 9854 c-22 -23 -24 -34 -24 -112 0 -67 5 -96 20 -127 35 -70 84
-58 230 55 44 35 99 71 122 82 29 13 45 27 49 44 15 58 -51 70 -156 29 -87
-34 -102 -32 -140 15 -37 47 -66 51 -101 14z"/>
<path d="M5485 9634 c-19 -19 -7 -38 21 -32 23 4 32 48 10 48 -8 0 -22 -7 -31
-16z"/>
<path d="M10214 8827 c-10 -28 4 -67 69 -181 56 -99 103 -156 128 -156 16 0 3
35 -61 165 -62 127 -123 204 -136 172z"/>
<path d="M3113 8686 c-136 -22 -142 -29 -292 -337 -210 -431 -345 -756 -456
-1094 -71 -217 -105 -300 -163 -401 -52 -89 -128 -293 -132 -354 -4 -45 0 -49
53 -65 28 -8 57 -19 63 -23 18 -11 34 -49 34 -77 0 -64 68 -135 128 -135 20 1
48 7 62 15 14 8 36 14 48 15 23 0 24 -2 17 -62 -8 -72 -8 -66 -6 -95 1 -19 7
-23 36 -23 28 0 40 7 66 40 29 36 37 40 76 40 47 0 80 14 157 67 67 46 114 45
208 -4 115 -59 208 -50 315 33 31 24 79 51 107 59 67 20 181 20 198 0 33 -40
41 -45 70 -45 47 0 89 38 177 163 44 61 114 145 156 185 83 82 138 177 155
271 21 113 133 259 214 280 44 11 111 55 173 113 l32 30 -40 51 c-114 144
-105 227 46 412 85 104 94 136 66 232 -11 40 -21 84 -21 98 0 32 21 74 49 99
21 19 21 19 21 -17 0 -20 5 -47 11 -61 24 -52 82 -33 92 31 4 21 29 76 56 122
50 85 68 132 56 150 -7 13 -111 45 -208 65 -165 34 -293 48 -517 56 -185 6
-264 14 -370 34 -170 32 -319 75 -390 111 -49 26 -67 29 -160 32 -58 1 -142
-4 -187 -11z m214 -94 c75 -39 67 -83 -22 -126 -31 -14 -59 -26 -64 -26 -4 0
-29 -16 -56 -35 -83 -59 -126 -122 -285 -415 -40 -74 -90 -160 -110 -190 -76
-113 -141 -265 -269 -639 -91 -263 -152 -422 -181 -470 -26 -42 -35 -36 -16
11 19 46 38 130 80 363 53 290 101 437 221 676 80 158 103 214 149 369 82 269
181 420 320 487 43 20 62 23 121 20 45 -2 85 -11 112 -25z m440 -682 c91 -149
192 -297 256 -376 80 -100 122 -172 142 -249 17 -67 20 -153 5 -175 -9 -13
-16 -9 -41 20 -78 90 -306 511 -396 730 -44 108 -59 186 -27 145 8 -11 36 -54
61 -95z m-126 -601 c42 -22 47 -99 8 -120 -16 -8 -25 -4 -49 20 -60 60 -28
137 41 100z m-68 -230 c16 -25 0 -69 -25 -69 -41 0 -76 58 -51 84 12 12 66 2
76 -15z m-605 -155 c36 -25 24 -64 -19 -64 -15 0 -40 46 -33 64 8 20 23 20 52
0z m608 -129 c7 -18 -13 -45 -33 -45 -17 0 -27 24 -19 45 7 20 45 19 52 0z
m-80 -173 c41 -46 65 -54 124 -40 12 2 15 -9 14 -59 -1 -71 -22 -113 -57 -113
-30 0 -73 45 -90 95 -8 24 -26 48 -45 60 -46 30 -67 86 -40 113 16 16 44 -1
94 -56z m-698 -234 c31 -31 0 -105 -33 -78 -25 21 -14 90 15 90 3 0 11 -5 18
-12z m402 -39 c0 -4 -8 -17 -19 -30 -16 -20 -21 -21 -35 -10 -21 18 -20 30 6
58 21 23 23 23 35 7 7 -10 13 -21 13 -25z"/>
<path d="M10990 7819 c0 -61 145 -240 225 -279 64 -31 105 -41 105 -26 0 28
-292 326 -320 326 -6 0 -10 -10 -10 -21z"/>
<path d="M5121 7455 c-47 -40 -38 -95 16 -95 32 0 105 67 101 94 -2 17 -11 22
-44 24 -33 2 -48 -2 -73 -23z"/>
<path d="M7040 7173 c-76 -39 -73 -131 9 -300 56 -115 77 -177 86 -256 8 -72
33 -103 115 -142 l62 -29 -7 -191 c-9 -257 -23 -463 -36 -523 -5 -27 -21 -65
-35 -83 -31 -42 -30 -58 5 -116 44 -73 54 -117 48 -199 -4 -51 -16 -99 -41
-160 -42 -102 -44 -129 -15 -204 27 -69 37 -216 19 -289 -12 -51 -12 -51 -69
-67 -159 -44 -165 -49 -183 -169 -21 -146 1 -183 161 -274 185 -106 253 -114
419 -49 126 49 183 55 300 34 131 -23 287 -35 623 -46 392 -14 507 -24 528
-45 13 -13 16 -39 17 -133 0 -64 1 -125 2 -134 4 -39 32 -13 77 73 65 122 123
174 279 249 151 73 196 117 196 192 0 77 -72 140 -214 188 l-93 31 -7 159 c-9
197 -7 200 73 200 69 0 75 -7 62 -77 -10 -52 0 -83 26 -83 26 0 77 62 97 119
23 65 56 106 107 132 25 12 39 26 39 39 0 20 -7 23 -85 35 -61 9 -74 15 -85
36 -8 15 -6 22 10 36 27 24 26 61 -2 73 -13 5 -44 12 -70 15 -52 7 -91 33
-113 75 -32 62 -7 153 54 198 17 12 31 29 31 37 0 8 -16 45 -36 83 -33 62 -37
82 -47 189 -14 161 -3 248 36 277 25 19 43 21 153 22 107 1 127 4 145 20 50
45 47 64 -28 149 -23 27 -43 58 -43 67 0 23 52 55 104 64 79 13 126 52 126
105 0 40 -53 111 -135 178 -91 75 -120 113 -139 175 -15 48 -41 86 -59 86 -6
0 -19 -8 -30 -17 -18 -17 -58 -18 -551 -17 -516 0 -793 9 -1256 40 -257 17
-372 28 -429 44 -39 10 -91 59 -91 85 0 7 23 21 50 30 28 9 50 20 50 25 0 8
-98 46 -145 55 -19 3 -43 -1 -65 -12z m646 -348 c104 -8 324 -21 489 -30 536
-28 943 -64 995 -88 35 -17 38 -54 6 -68 -26 -12 -23 -13 -996 46 -223 14
-513 28 -645 31 -264 6 -305 13 -305 48 0 74 110 88 456 61z m388 -911 c19 -7
22 -54 3 -54 -16 0 -40 38 -32 50 7 12 9 12 29 4z m864 -92 c41 -53 -29 -121
-80 -75 -24 21 -23 58 3 84 22 22 55 19 77 -9z m-280 -44 c7 -7 12 -22 12 -33
0 -25 24 -49 57 -59 30 -9 144 -136 177 -196 30 -55 26 -80 -13 -80 -39 0 -68
25 -97 81 -15 32 -41 62 -70 82 -32 23 -47 41 -55 69 -7 26 -21 45 -44 61 -38
24 -44 47 -19 71 19 19 36 20 52 4z m-556 -125 c43 -38 23 -113 -30 -113 -51
1 -98 57 -80 96 20 42 71 51 110 17z m659 -292 c33 -33 37 -66 12 -93 -22 -25
-59 -23 -77 4 -22 31 -21 94 2 107 25 15 31 14 63 -18z m-1281 -60 c0 -28 -4
-53 -10 -56 -6 -4 -10 15 -10 49 0 31 5 56 10 56 6 0 10 -22 10 -49z m602 38
c11 -6 26 -26 34 -45 27 -63 -17 -113 -73 -83 -30 16 -67 75 -57 91 26 47 56
58 96 37z m810 -146 c35 -32 10 -103 -37 -103 -46 0 -62 77 -23 104 28 20 37
20 60 -1z m-260 -39 c14 -30 1 -59 -27 -59 -22 0 -35 33 -24 63 11 30 37 28
51 -4z m-735 -60 c25 -16 39 -52 25 -66 -14 -14 -66 15 -91 51 -12 16 -21 32
-21 36 0 10 62 -5 87 -21z m-418 -136 c-1 -84 -3 -95 -10 -63 -8 36 -2 165 7
165 2 0 3 -46 3 -102z m1991 85 c0 -12 -33 -43 -47 -43 -13 0 -18 31 -6 43 8
9 53 9 53 0z m-1386 -35 c34 -32 40 -61 19 -87 -27 -33 -80 -32 -110 3 -28 33
-29 60 -3 86 26 26 63 25 94 -2z m656 -13 c14 -14 43 -38 67 -53 23 -15 50
-41 60 -59 17 -32 17 -34 -2 -53 -11 -11 -34 -22 -51 -26 -43 -8 -69 19 -79
81 -5 36 -15 56 -37 77 -25 23 -28 31 -18 43 18 21 33 19 60 -10z m-424 -171
c7 -50 0 -201 -10 -212 -4 -3 -14 2 -24 11 -24 25 -30 159 -8 210 20 50 33 47
42 -9z m-415 -22 c79 -51 197 -198 175 -219 -14 -14 -104 -9 -120 7 -9 8 -19
40 -23 70 l-8 55 -52 0 c-60 1 -93 24 -93 65 0 57 51 66 121 22z m1047 -67
c23 -71 -16 -104 -57 -47 -30 42 -35 76 -16 96 15 15 20 15 39 3 11 -8 27 -31
34 -52z m-1439 -79 c16 -20 3 -46 -24 -46 -27 0 -36 17 -23 43 10 20 31 22 47
3z m-274 -211 c139 -18 297 -18 400 0 102 19 129 19 165 0 32 -17 39 -45 16
-64 -64 -53 -776 13 -741 69 8 13 29 13 160 -5z m1198 -41 c248 -39 253 -42
67 -43 -294 -1 -439 26 -392 73 10 11 141 -1 325 -30z"/>
<path d="M7560 7170 c-46 -10 -92 -37 -92 -55 1 -33 287 -60 527 -51 94 4 185
10 203 14 33 7 33 7 -38 35 -39 15 -103 35 -143 43 -85 19 -390 28 -457 14z"/>
<path d="M8429 7121 c-140 -26 -113 -84 48 -101 118 -13 466 -12 577 0 129 15
162 41 83 67 -79 26 -611 52 -708 34z"/>
<path d="M11724 7059 c9 -48 42 -86 90 -104 50 -19 86 -13 86 15 0 31 -123
120 -166 120 -13 0 -15 -6 -10 -31z"/>
<path d="M5775 6733 c-35 -18 -92 -70 -107 -96 -12 -23 6 -47 36 -47 49 0 138
105 122 145 -7 19 -13 18 -51 -2z"/>
<path d="M12493 6618 c3 -18 13 -64 21 -103 9 -38 16 -89 16 -112 0 -23 4 -53
10 -68 l10 -26 40 23 41 23 67 -73 c37 -40 73 -72 79 -72 26 0 26 51 1 104
-51 104 -242 336 -276 336 -11 0 -13 -8 -9 -32z"/>
<path d="M12580 6234 c0 -9 12 -30 26 -47 24 -29 26 -35 19 -92 -12 -97 -12
-100 12 -103 46 -7 74 98 43 159 -15 30 -59 78 -82 90 -14 7 -18 6 -18 -7z"/>
<path d="M12420 6140 c0 -75 -14 -110 -73 -179 -26 -30 -47 -58 -47 -63 0 -4
12 -8 26 -8 30 0 98 63 127 119 9 18 26 35 37 38 23 6 27 41 9 76 -14 27 -60
77 -71 77 -4 0 -8 -27 -8 -60z"/>
<path d="M9798 4937 c-40 -43 -64 -111 -49 -143 8 -18 18 -24 34 -22 29 4 49
64 45 138 l-3 55 -27 -28z"/>
<path d="M9570 4719 c0 -24 4 -38 10 -34 6 3 10 22 10 41 0 19 -4 34 -10 34
-5 0 -10 -18 -10 -41z"/>
<path d="M9906 4503 c-12 -12 -6 -49 18 -99 36 -77 92 -108 116 -63 9 16 6 28
-15 64 -30 52 -104 113 -119 98z"/>
<path d="M12082 4494 c-31 -22 -12 -44 38 -44 48 0 70 8 70 26 0 33 -71 45
-108 18z"/>
<path d="M12503 4439 c-29 -11 -29 -40 0 -67 30 -28 55 -28 66 1 17 46 -20 83
-66 66z"/>
<path d="M11887 4222 c-10 -10 -14 -22 -10 -25 13 -13 42 -7 52 12 18 33 -15
43 -42 13z"/>
<path d="M5647 4213 c-15 -15 -5 -23 28 -23 39 0 47 14 13 24 -29 7 -33 7 -41
-1z"/>
<path d="M12550 4205 c-15 -18 2 -45 30 -45 23 0 34 28 19 46 -15 18 -33 18
-49 -1z"/>
<path d="M12283 4153 c-38 -15 27 -71 67 -58 29 9 24 32 -10 50 -30 16 -37 17
-57 8z"/>
<path d="M12482 4118 c-23 -6 -32 -14 -30 -26 8 -41 113 -39 113 3 0 24 -39
35 -83 23z"/>
<path d="M10728 4082 c-56 -53 -44 -64 13 -13 24 21 41 42 37 46 -4 4 -26 -11
-50 -33z"/>
<path d="M11793 4053 c-20 -7 -15 -48 7 -68 25 -23 64 -13 87 21 16 25 16 27
-2 40 -18 14 -67 17 -92 7z"/>
<path d="M12053 4015 c-74 -32 -18 -122 70 -111 21 2 44 10 52 16 36 30 -1 94
-60 105 -17 3 -45 -2 -62 -10z"/>
<path d="M10416 3898 c-9 -12 -16 -32 -16 -44 0 -24 -35 -79 -92 -143 -53 -60
-72 -129 -66 -240 3 -63 11 -99 28 -136 34 -70 148 -187 218 -222 55 -28 59
-33 108 -131 57 -115 74 -136 126 -163 42 -21 52 -37 62 -92 10 -53 33 -59
201 -55 127 3 146 6 190 29 63 32 89 76 115 196 11 48 20 95 20 104 0 30 -27
51 -90 67 -35 10 -65 23 -68 30 -7 22 54 13 133 -18 77 -31 132 -37 165 -20
22 12 40 61 40 112 0 52 13 74 54 93 25 12 40 30 55 65 12 27 21 54 21 61 0 7
25 -15 55 -48 30 -33 68 -66 85 -73 28 -12 34 -10 67 13 72 51 170 196 157
231 -3 9 -24 21 -46 28 -47 14 -115 0 -156 -32 -34 -27 -46 -25 -75 14 -27 35
-58 50 -120 61 -21 3 -53 20 -74 38 -32 28 -43 32 -92 31 -69 0 -112 -22 -151
-76 l-30 -41 0 91 c0 50 -3 97 -6 106 -8 22 -99 21 -176 0 -32 -9 -61 -14 -65
-10 -4 3 -2 39 4 79 12 85 5 102 -43 94 -49 -8 -84 -36 -125 -100 -40 -61 -78
-164 -104 -282 -8 -38 -20 -82 -26 -97 -14 -34 -68 -61 -181 -90 -109 -28
-135 -22 -153 38 -7 23 -29 63 -49 89 -66 88 -46 100 75 45 102 -48 130 -47
155 1 8 17 22 62 30 101 18 87 9 107 -66 139 -64 28 -73 43 -60 110 6 28 10
56 10 60 0 17 -29 9 -44 -13z m652 -444 c3 -23 -31 -59 -47 -49 -12 7 -15 58
-4 69 14 14 48 1 51 -20z m-43 -558 c24 -17 13 -46 -18 -46 -29 0 -52 24 -43
45 7 19 36 19 61 1z"/>
<path d="M12174 3861 c-44 -31 -74 -71 -74 -97 0 -14 6 -15 38 -10 20 4 69 11
107 16 80 9 105 17 105 34 0 25 -88 86 -123 86 -8 0 -32 -13 -53 -29z"/>
<path d="M8554 3782 c-32 -20 -89 -93 -118 -150 -24 -47 -18 -106 11 -110 18
-3 27 7 47 46 33 66 84 108 189 157 l89 41 -54 12 c-108 24 -131 24 -164 4z"/>
<path d="M6223 3774 c-15 -39 38 -67 60 -32 8 12 7 21 -2 32 -17 21 -50 20
-58 0z"/>
<path d="M6795 3696 c-17 -12 -18 -18 -7 -40 14 -31 51 -35 75 -8 22 24 21 39
-2 52 -26 14 -44 13 -66 -4z"/>
<path d="M12525 3395 c-73 -28 -115 -86 -82 -114 34 -27 137 -20 137 11 0 14
59 35 121 42 31 4 65 13 75 20 55 41 -159 75 -251 41z"/>
<path d="M7080 3295 c-12 -14 -11 -18 1 -26 25 -16 64 -6 64 16 0 26 -46 33
-65 10z"/>
<path d="M7727 3232 c-24 -26 -21 -34 11 -30 19 2 28 9 30 26 4 27 -18 29 -41
4z"/>
<path d="M12708 3193 c-23 -6 -23 -26 1 -47 23 -21 56 -14 71 15 9 16 7 21
-15 29 -27 10 -29 11 -57 3z"/>
<path d="M6636 2921 c-24 -26 -13 -76 21 -98 25 -16 26 -16 45 7 14 17 18 33
14 54 -12 57 -47 73 -80 37z"/>
<path d="M11862 2767 c-6 -7 -18 -39 -26 -71 -20 -75 -27 -83 -86 -91 -81 -11
-125 -77 -87 -129 19 -26 152 -40 272 -28 106 10 128 21 119 61 -11 49 -82
186 -119 229 -38 44 -55 51 -73 29z"/>
<path d="M7794 2669 c-14 -15 -16 -24 -8 -37 17 -27 56 -42 99 -40 50 4 58 31
21 71 -31 34 -84 37 -112 6z"/>
<path d="M10201 2654 c-77 -39 -196 -159 -212 -215 -17 -58 -26 -69 -59 -69
-21 0 -39 12 -70 48 l-41 47 -34 -40 c-40 -46 -45 -83 -14 -111 24 -22 49 -66
49 -87 0 -28 -29 -26 -69 4 -23 16 -43 29 -45 29 -2 0 -7 -13 -11 -30 -8 -36
-39 -60 -78 -60 -62 0 -83 -33 -50 -80 37 -53 8 -197 -55 -270 -48 -56 -173
-100 -291 -101 -47 -1 -58 2 -71 21 -36 53 -69 80 -98 80 -65 0 -81 77 -35
169 32 65 131 173 179 196 35 16 37 16 88 -9 79 -39 96 -32 76 29 -48 145
-293 25 -440 -215 -33 -53 -71 -107 -85 -120 l-26 -24 -68 17 c-76 20 -101 15
-101 -18 0 -35 -38 -75 -94 -100 -106 -47 -458 -125 -562 -125 -22 0 -75 9
-117 20 -80 21 -121 16 -133 -15 -9 -23 18 -48 90 -83 101 -49 108 -49 157 -5
l42 38 226 -1 c204 -1 232 -3 290 -22 35 -12 71 -22 81 -22 21 0 50 -31 50
-54 0 -45 65 -119 128 -145 42 -17 74 -4 102 41 27 45 25 72 -6 93 -54 35 -85
172 -48 210 15 15 18 14 40 -6 13 -12 29 -38 35 -58 19 -57 37 -78 86 -101 97
-46 381 -31 464 25 40 26 165 203 188 265 25 69 44 100 62 100 9 0 50 -16 90
-35 60 -29 85 -35 139 -35 41 -1 72 -6 84 -15 14 -11 46 -15 111 -15 65 0 97
-4 111 -15 10 -8 40 -15 65 -15 29 0 51 -6 59 -15 16 -20 25 -19 76 5 23 12
66 23 95 26 76 8 105 21 119 55 22 52 -24 121 -102 153 -74 31 -132 15 -163
-45 -31 -59 -55 -35 -154 151 -40 74 -83 155 -97 180 -22 38 -25 54 -21 105 6
80 32 128 88 163 68 44 103 132 51 132 -10 0 -42 -12 -71 -26z"/>
<path d="M10396 2661 c-10 -11 -15 -25 -11 -30 7 -12 64 -15 90 -5 14 6 13 9
-6 30 -27 29 -50 30 -73 5z"/>
<path d="M6210 2625 c0 -28 25 -44 42 -27 9 9 7 17 -7 32 -24 27 -35 25 -35
-5z"/>
<path d="M5970 2591 c-13 -25 2 -61 26 -61 11 0 14 9 12 37 -3 42 -22 54 -38
24z"/>
<path d="M10789 2578 c-4 -70 27 -141 89 -210 51 -57 82 -68 162 -57 59 9 69
7 113 -16 54 -27 113 -32 142 -12 14 11 16 21 11 50 -16 85 -126 257 -164 257
-9 0 -46 -14 -80 -30 -82 -39 -111 -38 -188 5 -73 41 -84 43 -85 13z"/>
<path d="M6747 2570 c-22 -17 -27 -29 -27 -63 0 -43 29 -118 57 -149 26 -29
50 -21 84 29 62 89 37 185 -52 199 -26 4 -41 1 -62 -16z"/>
<path d="M10570 2559 c0 -19 37 -63 69 -82 28 -17 31 -17 31 -1 0 9 -17 34
-39 55 -38 39 -61 49 -61 28z"/>
<path d="M5338 2529 c-27 -15 -21 -54 13 -94 36 -40 58 -43 106 -14 49 31 43
66 -17 97 -48 24 -75 27 -102 11z"/>
<path d="M8241 2526 c-7 -8 -16 -37 -20 -65 -4 -28 -20 -68 -36 -91 -24 -35
-27 -46 -22 -90 3 -27 21 -78 41 -116 29 -54 35 -74 30 -103 -8 -49 17 -71 87
-77 58 -5 104 11 104 36 0 8 -20 25 -45 38 -25 12 -46 26 -48 30 -1 5 16 25
38 46 23 21 39 43 37 49 -2 7 -23 16 -48 20 -58 12 -66 19 -74 73 -3 24 -17
57 -30 72 l-23 27 39 42 c21 23 39 52 39 63 0 51 -42 79 -69 46z"/>
<path d="M7653 2474 c-9 -24 9 -47 43 -56 58 -15 86 19 46 55 -24 22 -81 22
-89 1z"/>
<path d="M7360 2430 c0 -22 106 -100 135 -100 27 0 -34 74 -82 99 -27 14 -53
14 -53 1z"/>
<path d="M7188 2339 c-27 -15 -22 -48 8 -59 32 -12 154 -13 154 -1 0 5 -16 23
-35 40 -38 33 -91 41 -127 20z"/>
<path d="M6582 2308 c-17 -17 1 -45 76 -114 74 -68 73 -62 57 -222 l-8 -84 24
4 c17 2 31 17 49 53 21 43 25 64 25 151 0 67 -4 106 -13 116 -7 9 -39 21 -72
27 -49 10 -65 18 -87 46 -31 39 -34 40 -51 23z"/>
<path d="M11854 2159 c-3 -6 -8 -32 -9 -58 -2 -27 -14 -68 -29 -97 -28 -55
-27 -74 12 -150 23 -45 47 -69 60 -60 5 3 13 31 17 61 3 31 19 84 35 118 35
76 31 104 -20 158 -38 40 -54 47 -66 28z"/>
<path d="M37 1813 c-23 -22 16 -128 58 -161 29 -23 69 -29 80 -13 10 16 -46
140 -72 161 -26 20 -54 26 -66 13z"/>
<path d="M6326 1780 c-53 -21 -86 -46 -86 -66 0 -24 53 -56 83 -50 41 8 82 41
97 76 25 61 -6 74 -94 40z"/>
<path d="M6533 1770 c-12 -5 -27 -18 -33 -29 -17 -32 4 -59 65 -87 86 -39 175
-53 330 -52 110 1 149 -2 184 -15 44 -17 115 -22 145 -11 9 3 16 14 16 24 0
30 -97 54 -324 80 -119 14 -191 32 -254 64 -58 29 -100 38 -129 26z"/>
<path d="M6385 1469 c-35 -31 -65 -77 -65 -99 0 -20 37 -10 61 18 50 54 75
112 49 112 -5 0 -25 -14 -45 -31z"/>
<path d="M9071 1324 c-12 -15 -21 -30 -21 -35 0 -21 24 -58 46 -69 20 -11 27
-10 56 12 18 14 40 38 48 53 14 25 13 28 -9 46 -36 29 -95 25 -120 -7z"/>
<path d="M6603 1130 c-41 -17 -56 -80 -30 -130 16 -31 38 -29 118 6 67 30 113
73 103 97 -12 31 -137 49 -191 27z"/>
<path d="M6995 1081 c-82 -49 -98 -171 -26 -187 53 -12 61 -16 102 -50 22 -19
44 -34 47 -35 53 -7 182 -13 182 -8 0 12 -146 133 -177 146 -37 15 -53 39 -53
80 0 28 -24 73 -38 73 -4 0 -21 -8 -37 -19z"/>
<path d="M7585 873 c-71 -6 -143 -24 -154 -37 -8 -10 -6 -17 7 -29 29 -26 102
-39 221 -40 107 0 116 1 133 23 22 27 23 54 2 74 -15 16 -97 19 -209 9z"/>
<path d="M8102 683 c-13 -26 -4 -43 24 -43 29 0 41 24 24 45 -17 20 -37 19
-48 -2z"/>
<path d="M7910 650 c0 -5 16 -10 35 -10 19 0 35 5 35 10 0 6 -16 10 -35 10
-19 0 -35 -4 -35 -10z"/>
<path d="M1164 595 c-20 -31 -13 -63 23 -100 38 -39 142 -86 195 -88 41 -2 43
-1 43 27 0 27 -7 33 -65 62 -36 18 -85 53 -110 78 -24 25 -50 46 -57 46 -7 0
-20 -11 -29 -25z"/>
<path d="M1412 309 c4 -29 54 -67 69 -52 7 7 2 20 -16 42 -31 36 -58 41 -53
10z"/>
<path d="M8797 232 c-22 -24 -21 -42 1 -42 21 0 52 29 52 48 0 18 -35 14 -53
-6z"/>
<path d="M7940 105 c-10 -12 -10 -18 0 -30 7 -8 18 -15 25 -15 19 0 36 25 29
44 -8 20 -38 21 -54 1z"/>
<path d="M1924 75 c-11 -26 4 -45 35 -45 38 0 48 16 25 41 -20 23 -52 25 -60
4z"/>
<path d="M2100 10 c0 -5 18 -10 40 -10 22 0 40 5 40 10 0 6 -18 10 -40 10 -22
0 -40 -4 -40 -10z"/>
</g>
</svg>
